<mxfile host="app.diagrams.net" modified="2023-01-29T08:06:19.862Z" agent="5.0 (Windows NT 10.0; Win64; x64) AppleWebKit/537.36 (KHTML, like Gecko) Chrome/108.0.0.0 Safari/537.36" etag="jnwwYohUhPK71oJ3jk9U" version="20.8.13" type="github">
  <diagram id="kgpKYQtTHZ0yAKxKKP6v" name="Page-1">
    <mxGraphModel dx="989" dy="488" grid="1" gridSize="10" guides="1" tooltips="1" connect="1" arrows="1" fold="1" page="1" pageScale="1" pageWidth="850" pageHeight="1100" math="0" shadow="0">
      <root>
        <mxCell id="0" />
        <mxCell id="1" parent="0" />
        <mxCell id="GYKTV-y5-hwn5-NRRvAT-9" style="edgeStyle=orthogonalEdgeStyle;rounded=0;sketch=0;hachureGap=4;jiggle=2;curveFitting=1;orthogonalLoop=1;jettySize=auto;html=1;exitX=0.5;exitY=1;exitDx=0;exitDy=0;fontFamily=Architects Daughter;fontSource=https%3A%2F%2Ffonts.googleapis.com%2Fcss%3Ffamily%3DArchitects%2BDaughter;fontSize=12;" edge="1" parent="1" source="GYKTV-y5-hwn5-NRRvAT-5">
          <mxGeometry relative="1" as="geometry">
            <mxPoint x="104.79310344827582" y="70" as="targetPoint" />
          </mxGeometry>
        </mxCell>
        <mxCell id="GYKTV-y5-hwn5-NRRvAT-5" value="Start" style="html=1;hachureGap=4;fontFamily=Architects Daughter;fontSource=https%3A%2F%2Ffonts.googleapis.com%2Fcss%3Ffamily%3DArchitects%2BDaughter;fontSize=12;fillColor=#dae8fc;strokeColor=#000000;strokeWidth=2;" vertex="1" parent="1">
          <mxGeometry x="50" y="20" width="110" height="30" as="geometry" />
        </mxCell>
        <mxCell id="GYKTV-y5-hwn5-NRRvAT-10" style="edgeStyle=orthogonalEdgeStyle;rounded=0;sketch=0;hachureGap=4;jiggle=2;curveFitting=1;orthogonalLoop=1;jettySize=auto;html=1;exitX=0.5;exitY=1;exitDx=0;exitDy=0;fontFamily=Architects Daughter;fontSource=https%3A%2F%2Ffonts.googleapis.com%2Fcss%3Ffamily%3DArchitects%2BDaughter;fontSize=12;entryX=0.5;entryY=0;entryDx=0;entryDy=0;" edge="1" parent="1" source="GYKTV-y5-hwn5-NRRvAT-8" target="GYKTV-y5-hwn5-NRRvAT-12">
          <mxGeometry relative="1" as="geometry">
            <mxPoint x="103.41379310344837" y="130" as="targetPoint" />
            <Array as="points" />
          </mxGeometry>
        </mxCell>
        <mxCell id="GYKTV-y5-hwn5-NRRvAT-8" value="GameplayEffect" style="rounded=1;whiteSpace=wrap;html=1;absoluteArcSize=1;arcSize=14;strokeWidth=2;sketch=0;hachureGap=4;jiggle=2;curveFitting=1;fontFamily=Architects Daughter;fontSource=https%3A%2F%2Ffonts.googleapis.com%2Fcss%3Ffamily%3DArchitects%2BDaughter;fontSize=12;fillColor=#dae8fc;strokeColor=#000000;" vertex="1" parent="1">
          <mxGeometry x="47.5" y="72" width="112.5" height="40" as="geometry" />
        </mxCell>
        <mxCell id="GYKTV-y5-hwn5-NRRvAT-15" style="edgeStyle=orthogonalEdgeStyle;rounded=0;sketch=0;hachureGap=4;jiggle=2;curveFitting=1;orthogonalLoop=1;jettySize=auto;html=1;exitX=0.5;exitY=1;exitDx=0;exitDy=0;entryX=0.5;entryY=0;entryDx=0;entryDy=0;entryPerimeter=0;fontFamily=Architects Daughter;fontSource=https%3A%2F%2Ffonts.googleapis.com%2Fcss%3Ffamily%3DArchitects%2BDaughter;fontSize=12;" edge="1" parent="1" source="GYKTV-y5-hwn5-NRRvAT-12" target="GYKTV-y5-hwn5-NRRvAT-14">
          <mxGeometry relative="1" as="geometry" />
        </mxCell>
        <mxCell id="GYKTV-y5-hwn5-NRRvAT-12" value="Activate GC by GameplayCue Tag" style="rounded=1;whiteSpace=wrap;html=1;absoluteArcSize=1;arcSize=14;strokeWidth=2;sketch=0;hachureGap=4;jiggle=2;curveFitting=1;fontFamily=Architects Daughter;fontSource=https%3A%2F%2Ffonts.googleapis.com%2Fcss%3Ffamily%3DArchitects%2BDaughter;fontSize=12;fillColor=#dae8fc;strokeColor=#000000;" vertex="1" parent="1">
          <mxGeometry x="47.5" y="130" width="112.5" height="40" as="geometry" />
        </mxCell>
        <mxCell id="GYKTV-y5-hwn5-NRRvAT-16" style="edgeStyle=orthogonalEdgeStyle;rounded=0;sketch=0;hachureGap=4;jiggle=2;curveFitting=1;orthogonalLoop=1;jettySize=auto;html=1;exitX=0.5;exitY=1;exitDx=0;exitDy=0;exitPerimeter=0;fontFamily=Architects Daughter;fontSource=https%3A%2F%2Ffonts.googleapis.com%2Fcss%3Ffamily%3DArchitects%2BDaughter;fontSize=12;" edge="1" parent="1" source="GYKTV-y5-hwn5-NRRvAT-14">
          <mxGeometry relative="1" as="geometry">
            <mxPoint x="105" y="260" as="targetPoint" />
          </mxGeometry>
        </mxCell>
        <mxCell id="GYKTV-y5-hwn5-NRRvAT-18" style="edgeStyle=orthogonalEdgeStyle;rounded=0;sketch=0;hachureGap=4;jiggle=2;curveFitting=1;orthogonalLoop=1;jettySize=auto;html=1;exitX=1;exitY=0.5;exitDx=0;exitDy=0;exitPerimeter=0;fontFamily=Architects Daughter;fontSource=https%3A%2F%2Ffonts.googleapis.com%2Fcss%3Ffamily%3DArchitects%2BDaughter;fontSize=12;" edge="1" parent="1" source="GYKTV-y5-hwn5-NRRvAT-14">
          <mxGeometry relative="1" as="geometry">
            <mxPoint x="190" y="214.75862068965523" as="targetPoint" />
          </mxGeometry>
        </mxCell>
        <mxCell id="GYKTV-y5-hwn5-NRRvAT-14" value="CommonType" style="strokeWidth=2;html=1;shape=mxgraph.flowchart.decision;whiteSpace=wrap;sketch=0;hachureGap=4;jiggle=2;curveFitting=1;fontFamily=Architects Daughter;fontSource=https%3A%2F%2Ffonts.googleapis.com%2Fcss%3Ffamily%3DArchitects%2BDaughter;fontSize=12;fillColor=#dae8fc;strokeColor=#000000;" vertex="1" parent="1">
          <mxGeometry x="52" y="190" width="106" height="50" as="geometry" />
        </mxCell>
        <mxCell id="GYKTV-y5-hwn5-NRRvAT-17" value="New GamePlayCue And Implement Functions" style="rounded=1;whiteSpace=wrap;html=1;absoluteArcSize=1;arcSize=14;strokeWidth=2;sketch=0;hachureGap=4;jiggle=2;curveFitting=1;fontFamily=Architects Daughter;fontSource=https%3A%2F%2Ffonts.googleapis.com%2Fcss%3Ffamily%3DArchitects%2BDaughter;fontSize=12;fillColor=#dae8fc;strokeColor=#000000;" vertex="1" parent="1">
          <mxGeometry x="40" y="260" width="130" height="40" as="geometry" />
        </mxCell>
        <mxCell id="GYKTV-y5-hwn5-NRRvAT-19" value="No" style="text;html=1;strokeColor=none;fillColor=none;align=center;verticalAlign=middle;whiteSpace=wrap;rounded=0;fontSize=12;fontFamily=Architects Daughter;" vertex="1" parent="1">
          <mxGeometry x="52" y="230" width="60" height="30" as="geometry" />
        </mxCell>
        <mxCell id="GYKTV-y5-hwn5-NRRvAT-21" value="&lt;div style=&quot;text-align: center;&quot;&gt;&lt;span style=&quot;background-color: initial;&quot;&gt;Yes&lt;/span&gt;&lt;/div&gt;" style="text;whiteSpace=wrap;html=1;fontSize=12;fontFamily=Architects Daughter;" vertex="1" parent="1">
          <mxGeometry x="160" y="190" width="50" height="40" as="geometry" />
        </mxCell>
        <mxCell id="GYKTV-y5-hwn5-NRRvAT-22" value="CommonGC+GEBehaviorConfig" style="rounded=1;whiteSpace=wrap;html=1;absoluteArcSize=1;arcSize=14;strokeWidth=2;sketch=0;hachureGap=4;jiggle=2;curveFitting=1;fontFamily=Architects Daughter;fontSource=https%3A%2F%2Ffonts.googleapis.com%2Fcss%3Ffamily%3DArchitects%2BDaughter;fontSize=12;fillColor=#dae8fc;strokeColor=#000000;" vertex="1" parent="1">
          <mxGeometry x="190" y="195" width="200" height="40" as="geometry" />
        </mxCell>
      </root>
    </mxGraphModel>
  </diagram>
</mxfile>
